Patient4_TMGait_0pt2_03_left_17_EMG.mot
version=1
nRows=29
nColumns=33
inDegrees=no
endheader
time	1LAddLong	2LGlutMax	3LGlutMed	4LIliopsoas	5LSemiMemb	6LBicFemLong	7LRecFem	8LVastMed	9LVastLat	10LGasMed	11LTibAnt	12lTibPost	13LPeroneusLong	14LSol	15LExtDigLong	16LFlexDigLong	17RAddLong	18RGlutMax	19RGlutMed	20RIliopsoas	21RSemiMemb	22RBicFemLong	23RRecFem	24RVastMed	25RVastLat	26RGasMed	27RTibAnt	28RTibPost	29RPeroneusLong	30RSol	31RExtDigLong	32RFlexDigLong
36.162	0.010834	0.038757	0.049591	-0.010834	-0.030823	-0.11841	0.19516	0.011292	0.008698	-0.075378	-0.019226	0.005798	-0.086823	0.059052	-0.029297	0.000763	0.001526	-0.043793	-0.053864	0.045471	-0.27924	-0.077362	0.041046	0.003967	0.020142	-0.01358	-0.022125	0.62866	0.22781	-0.32684	-0.000458	-0.041046
36.163	-0.003967	0.041046	0.039825	-0.047455	-0.075226	-0.33417	0.19882	0.011902	0.01297	-0.006409	0.014038	0.003967	-0.13718	-0.087585	-0.10742	-0.001831	-0.044098	-0.024872	-0.087738	-0.052795	-0.11398	-0.074921	-0.08194	0.02655	0.014648	0.005798	-0.026703	0.25421	0.36484	-0.57922	0.001678	-0.043335
36.164	-0.011597	0.053253	0.021973	-0.035095	-0.10025	-0.56351	0.13992	0.006561	0.025024	0.097046	0.022583	0.003662	0.050812	-0.1149	-0.10407	-0.00351	-0.048981	-0.08255	0.047607	-0.099487	-0.098267	-0.10132	-0.078583	0.042267	0.035553	-0.085754	0.009918	-0.32867	0.40955	-0.64087	-0.003662	-0.048065
36.165	-0.000763	0.035095	-0.012817	0.026093	-0.093231	-0.39398	0.10208	0.010986	0.009003	0.1564	0.001373	0.008392	-0.037384	-0.17563	-0.11093	-0.005798	-0.007477	-0.061188	0.039215	-0.040741	-0.097504	-0.14923	-0.035858	0.098877	0.067596	-0.089111	0.015717	0.014343	0.19516	0.001678	-0.003662	-0.048523
36.166	0.012512	0.018768	-0.038452	0.079651	-0.048218	-0.15243	0.070038	0.011139	0.002289	0.15778	-0.001068	0.003204	-0.035095	-0.063934	-0.07843	-0.003662	0.024567	-0.061493	0.17212	-0.030365	-0.027313	-0.16495	-0.015869	-0.013885	0.052643	-0.020142	0.019836	0.18768	0.11536	0.18799	-0.003204	-0.039215
36.167	0.03067	0.038757	-0.041656	0.037079	0.099182	-0.25299	0.10605	-0.001984	0.028839	0.14572	-0.01297	0.00885	0.010986	0.036011	0.005035	-0.001373	0.048981	0.028229	0.31204	-0.026093	-0.051117	-0.023499	-0.02243	-0.027313	0.024567	0.007935	0.058899	-0.029449	0.14343	0.68298	-0.003204	-0.046082
36.168	0.025482	0.084534	-0.072479	0.029602	0.12711	-0.17593	0.06958	-0.00412	0.007782	0.03479	-0.007629	0.004272	0.19424	0.084839	0.014496	0.011749	0.069122	0.011292	0.072937	0.005646	0.005646	0.014954	-0.048218	0.05188	0.04776	0.001373	0.054016	-0.27802	0.29007	0.87311	0.006714	-0.048981
36.169	0.015106	0.071259	-0.054321	0.013428	0.071411	-0.057983	0.090332	-0.003204	0.010223	-0.15289	-0.013733	-0.003052	0.3302	0.12207	0.046844	-0.006714	0.081635	-0.0177	0.10208	-0.084381	0.24048	0.000763	0.010834	-0.014801	0.010986	-0.011597	0.015717	0.35599	-0.18387	0.022888	-0.00061	-0.058899
36.17	0.009003	0.10864	0.015106	-0.016327	0.035248	-0.020447	0.094452	-0.007172	0.027618	-0.039368	-0.004425	0.000458	0.13214	0.019684	0.001068	-0.005188	0.046997	-0.035248	0.036011	0.051575	0.18829	0.023499	0.039978	-0.054016	0.006104	0.010223	-0.01358	0.09903	0.34821	-0.41199	-0.002899	-0.053253
36.171	-0.003967	0.12238	0.067902	-0.000458	-0.003662	0.023346	0.085144	0.001068	-0.002441	0.071564	-0.003967	-0.002899	0.013428	-0.23041	-0.014648	0.000763	0.035858	-0.055542	0.12329	0.20447	-0.058594	-0.02533	0.040283	-0.095825	0.001984	0.019684	-0.034332	-0.072174	0.43762	-0.23224	0.00351	-0.046387
36.172	-0.002289	0.14679	0.01297	0.014038	-0.041504	0.019226	0.10132	0.007477	-0.00061	0.075378	-0.002594	0.00351	-0.063171	-0.35523	-0.020447	0.009003	0.006409	-0.060425	0.12161	0.10895	-0.035706	-0.011292	0.070953	-0.038605	0.005493	0.016785	-0.040894	-0.094604	0.26749	-0.057373	-0.003357	-0.029907
36.173	-0.016174	0.19775	-0.052338	0.036316	-0.079651	0.000916	0.20355	0.011902	0.044708	0.028381	-0.011444	0.006256	0.045471	-0.38818	0.000763	-0.014496	-0.037079	0.027924	-0.011749	0.045471	0.001068	0.15076	0.035706	0.067749	0.029144	-0.002289	0.008545	0.023956	-0.025787	0.18463	-0.001984	-0.029907
36.174	-0.010834	0.10178	-0.071564	0.007019	-0.11902	-0.10727	0.28656	0.014343	0.055084	0.007019	-0.007935	0.002594	0.11414	-0.43625	-0.002441	-0.006256	-0.02655	0.013275	-0.033417	0.065918	0.068817	0.20081	0.059357	-0.012207	0.029144	-0.007019	0.026855	0.04425	-0.16632	0.19791	0.001221	-0.033569
36.175	-0.015106	0.012665	-0.044556	0.005646	-0.006104	-0.14435	0.22461	0.013885	-0.017242	-0.045319	-0.002899	0.016632	0.059052	-0.14252	-0.007019	0.003204	0.007172	-0.10025	0.083923	0.043335	-0.027008	0.24277	0.096741	-0.034943	0.023346	-0.001373	0.021667	-0.012512	-0.073853	0.36026	0.001526	-0.046539
36.176	-0.003052	-0.084076	-0.10773	0.013123	0.097046	-0.13565	0.1535	0.009766	-0.002136	-0.15839	0.01236	0.00412	-0.048828	0.042267	0.041046	-0.008087	0.011292	-0.12802	0.022888	0.035248	0.024719	0.13947	0.095825	0.010529	0.034485	0.002747	0.006714	-0.030823	-0.00946	0.19867	-0.002289	-0.023956
36.177	0.005341	-0.090332	-0.035553	0.001068	0.029449	0.004578	0.12054	0.004272	-0.013123	-0.16693	0.014954	0.005035	-0.080872	0.089111	0.050354	-0.017548	-0.001984	-0.081482	0.036469	-0.001221	0.16922	0.024567	0.11612	-0.006866	0.028229	0.003967	0.003357	-0.031128	-0.04837	0.15427	-0.003204	-0.024872
36.178	-0.003357	-0.096283	0.13825	0.014496	-0.028229	0.080566	0.073853	0.017242	0.001221	-0.11627	0.019226	-0.002289	-0.10788	0.020599	0.017242	-0.005493	-0.005798	0.016327	-0.16419	-0.027771	-0.006409	-0.014343	0.14954	0.022278	0.00824	-0.002747	-0.002136	-0.032654	-0.054779	0.1059	0	-0.033875
36.179	0.000153	-0.14145	0.079498	0.003967	-0.011597	0.15274	-0.00824	0.051117	0.029449	-0.000305	-0.001984	0.004425	-0.12329	0.015717	0.016785	-0.009155	-0.014648	-0.010834	0.076141	-0.058441	-0.014496	-0.027466	0.14771	0.027771	0.008392	-0.002136	0.017853	-0.037689	0.024719	-0.10925	-0.002899	-0.028381
36.18	-0.002594	-0.086823	0.1059	0.006104	-0.016022	0.19379	-0.05249	0.021667	0.11597	0.070953	-0.004883	-0.001373	-0.072021	0.045929	0.016327	-0.00885	-0.012817	0.03891	0.33798	-0.06958	0.078735	-0.013123	0.088501	0.038605	0.016327	-0.001068	0.006104	-0.035858	-0.014954	-0.026093	-0.001831	-0.032196
36.181	0.003357	-0.064392	0.018463	0.000153	0.00946	0.22034	0.019684	0.014954	0.16785	0.077209	-0.020142	0.000153	0.031586	0.068512	0.020599	0.03006	-0.005035	0.021362	0.54092	-0.041504	0.22949	0.014648	0.12054	-0.042267	-0.015259	-0.003052	0.008698	-0.036774	-0.13855	-0.048981	0.010223	-0.031738
36.182	0.006256	-0.12726	0.00473	0.013123	-0.074158	0.23773	0.087585	0.005798	0.037384	0.080261	-0.016174	0.006409	0.039978	0.056305	0.016022	0.001831	-0.016327	0.000153	0.84259	0.085297	0.019531	0.084076	0.035858	-0.042877	-0.024261	0.000916	0.00946	-0.037537	-0.080414	-0.086212	-0.007324	-0.048676
36.183	0.008698	-0.15503	0.003357	-0.004578	-0.10529	0.039368	0.068665	0.003967	0.065918	0.11536	-0.01358	-0.007629	0.014191	0.035248	0.001221	-0.001068	-0.031586	0.022583	0.058899	0.071259	-0.27664	0.20523	-0.075531	-0.063019	0.045013	0	0.020294	-0.023651	-0.012665	-0.053406	-0.001831	-0.029602
36.184	0.023193	-0.13718	-0.054016	0.000153	-0.028076	-0.041199	0.06546	-0.00412	0.13123	-0.016174	-0.00351	-0.003357	0.027161	0.032654	-0.028229	-0.008545	-0.002289	0.037231	-0.042267	-0.004425	-0.23682	0.20477	-0.04303	-0.066376	0.06546	-0.000305	0.024719	-0.021973	0.01358	-0.029907	-0.001221	-0.031738
36.185	0.01709	-0.14526	-0.088501	0.005035	0.054474	-0.03067	0.095367	-0.002747	0.031281	-0.15289	-0.009308	-0.003204	0.10605	-0.001221	-0.024414	0.011139	0.034332	-0.000305	-0.036011	-0.018616	0.23636	0.081329	0.026398	-0.11734	0.002747	0.003052	0.03067	-0.025177	-0.15671	-0.03006	-0.004425	-0.036163
36.186	0.022888	-0.15091	-0.098877	0.002289	0.084686	-0.010681	0.049286	-0.005035	-0.13672	-0.16449	0.000305	-0.005341	0.081177	-0.003662	-0.016937	0.000153	0.046997	0.054321	-0.1564	0.000458	-0.011597	0.03006	0.031738	-0.015106	0.026398	0.002594	0.029907	-0.019531	-0.28564	-0.00946	-0.003967	-0.033875
36.187	0.032196	-0.10666	-0.087891	0.004883	0.050659	0.035248	0.024109	-0.008545	-0.09491	-0.11658	0.004425	-0.002594	0.050507	0.023499	-0.019531	0.001678	-0.020599	0.1265	-0.00061	-0.039978	-0.65002	0.17532	0.032501	0.062561	0.053101	0.00351	0.021362	-0.012512	-0.22812	-0.015717	-0.003052	-0.022278
36.188	0.024109	-0.079041	-0.053406	0.006561	0.066986	-0.042114	0.074005	-0.002441	-0.041656	-0.078125	-0.004578	0.002899	0.027313	0.036621	-0.023956	-0.005951	-0.037079	0.080566	-0.030212	-0.10162	-0.6134	0.16296	0.026398	0.09491	0.02533	0.003052	0.032654	-0.015564	-0.036621	-0.042114	-0.000305	-0.024567
36.189	0.019836	-0.13855	-0.084381	0.009766	0.077667	-0.14664	0.050354	0.002899	0.0383	-0.05249	-0.041504	-0.004425	0.028534	0.061188	-0.005341	0.017548	0.000305	0.079193	-0.11795	-0.020599	0.2652	0.11765	0.037231	0.059814	0.018311	0.008087	0.034485	-0.01236	0.10696	-0.056763	-0.00061	-0.03067
36.19	0.016174	-0.14847	-0.10208	0.002594	0.039825	-0.083771	0.083466	0.010376	0.072327	-0.03952	-0.027771	-0.006409	0.050354	0.045929	0.019989	0.016174	0.025024	0.10101	-0.20966	-0.080414	0.33844	0.063629	0.041962	-0.01709	0.010529	0.010223	0.069733	-0.008087	0.20981	0.062408	-0.001678	-0.021973
